# xmcd CD database file
#
# Track frame offsets:
#	150
#	17176
#	34783
#	45151
#	56829
#	66442
#	84675
#	118525
#	131031
#	142487
#	152144
#	163280
#	175568
#	187266
#	204501
#
# Disc length: 2988 seconds
#
# Revision: 0
# Processed by: cddbd v1.5.1PL0 Copyright (c) Steve Scherf et al.
# Submitted via: CDex 1.51
#
DISCID=e10baa0f
DTITLE=The Program - VV Summer Swap 2005
DYEAR=2005
DGENRE=Jazz
TTITLE0=Lennie Hibbert - Go For Yourself
TTITLE1=Zap Pow - Soul Revival
TTITLE2=Soul Combination - Soul Combination
TTITLE3=Glenda Dove - It's Gotta Be Something Else
TTITLE4=Tony Northern - Hand Down The Law
TTITLE5=Don Cooper - Bless The Children
TTITLE6=Yo La Tengo - Nuclear War
TTITLE7=Tangeers - He's Not That Kind Of Guy
TTITLE8=Doruk Onatkut - Bagdat Yolu
TTITLE9=Lonette McKee - Vell Of Mystery
TTITLE10=Pleasure Fair - Nursery Rhyme
TTITLE11=Marilia Medallia - Xaxado De Espantar Tristeza
TTITLE12=Eklipse - Reflexao
TTITLE13=Geoffery Stoner - Bend Your Head Low
TTITLE14=Dionne Warwicke - You're Going To Want Me Back
EXTD=YEAR: 2005
EXTT0=
EXTT1=
EXTT2=
EXTT3=
EXTT4=
EXTT5=
EXTT6=
EXTT7=
EXTT8=
EXTT9=
EXTT10=
EXTT11=
EXTT12=
EXTT13=
EXTT14=
PLAYORDER=
